<?xml version="1.0" encoding="UTF-8" standalone="no"?>
<!-- Created with Inkscape (http://www.inkscape.org/) -->

<svg
   xmlns:dc="http://purl.org/dc/elements/1.1/"
   xmlns:cc="http://creativecommons.org/ns#"
   xmlns:rdf="http://www.w3.org/1999/02/22-rdf-syntax-ns#"
   xmlns:svg="http://www.w3.org/2000/svg"
   xmlns="http://www.w3.org/2000/svg"
   xmlns:sodipodi="http://sodipodi.sourceforge.net/DTD/sodipodi-0.dtd"
   xmlns:inkscape="http://www.inkscape.org/namespaces/inkscape"
   version="1.0"
   width="1034.8533"
   height="925.46234"
   id="svg2742"
   inkscape:version="0.48.3.1 r9886"
   sodipodi:docname="tatsi_logo.svg">
  <sodipodi:namedview
     pagecolor="#ffffff"
     bordercolor="#666666"
     borderopacity="1"
     objecttolerance="10"
     gridtolerance="10"
     guidetolerance="10"
     inkscape:pageopacity="0"
     inkscape:pageshadow="2"
     inkscape:window-width="1278"
     inkscape:window-height="779"
     id="namedview24"
     showgrid="false"
     inkscape:zoom="0.472"
     inkscape:cx="577.22616"
     inkscape:cy="588.98305"
     inkscape:window-x="0"
     inkscape:window-y="19"
     inkscape:window-maximized="0"
     inkscape:current-layer="svg2742"
     fit-margin-top="0"
     fit-margin-left="0"
     fit-margin-right="0"
     fit-margin-bottom="0" />
  <metadata
     id="metadata2747">
    <rdf:RDF>
      <cc:Work
         rdf:about="">
        <dc:format>image/svg+xml</dc:format>
        <dc:type
           rdf:resource="http://purl.org/dc/dcmitype/StillImage" />
        <dc:title />
      </cc:Work>
    </rdf:RDF>
  </metadata>
  <defs
     id="defs2745" />
  <g
     id="layer1"
     style="display:inline"
     transform="matrix(0.61482823,0,0,0.61482823,-1.7675984e-6,618.04818)" />
  <g
     id="layer2"
     transform="matrix(0.61482823,0,0,0.61482823,-98.178319,-124.16238)">
    <path
       d="m 1311.3414,1706.7125 c 0.4354,-0.4429 11.8362,-9.0913 25.3349,-19.2187 53.5465,-40.1729 114.9857,-88.1851 141.3216,-110.4371 20.8403,-17.6086 36.3812,-38.333 51.0345,-68.0561 15.9436,-32.3405 26.203,-65.1256 34.0485,-108.8064 10.8124,-60.1996 10.7962,-123.5452 -0.047,-184.1291 -4.9104,-27.435 -11.4126,-48.7019 -24.4905,-80.102 -9.5595,-22.9524 -12.0583,-31.4295 -12.809,-43.454 -1.0653,-17.0629 5.1332,-31.1972 15.919,-36.2997 19.447,-9.1999 41.6332,5.6158 58.1686,38.8444 2.567,5.1586 4.9332,10.2698 5.2583,11.3584 2.1664,7.2557 10.6731,20.2167 15.6214,23.8013 6.1706,4.4699 12.6603,2.6098 17.5471,-5.0296 6.5531,-10.2441 8.9957,-18.9133 10.3684,-36.7996 0.7135,-9.2957 1.7198,-16.6522 2.816,-20.5847 4.0768,-14.6243 11.721,-25.1062 20.9317,-28.7015 14.3907,-5.6172 36.2053,1.2484 44.6959,14.0669 6.5305,9.8593 7.7352,18.9685 5.9424,44.9315 -1.6447,23.8177 -0.7336,34.5723 3.674,43.3661 5.2608,10.4962 11.8282,10.3716 19.9111,-0.3778 4.3377,-5.7689 11.5139,-20.3635 16.0753,-32.6933 2.9133,-7.8752 4.8216,-11.6476 8.1256,-16.0631 8.3179,-11.1162 18.1074,-18.1535 27.7589,-19.9547 7.4944,-1.3987 19.5159,1.4168 26.3554,6.1726 7.2536,5.0437 11.7442,11.1287 15.3246,20.7655 1.8423,4.9583 2.2555,7.5104 2.5596,15.8093 0.6479,17.6771 -4.6148,151.7576 -6.9919,178.1365 -5.8104,64.4777 -39.0161,129.9989 -104.7229,206.6383 -38.2597,44.6255 -64.7021,67.0189 -111.7531,94.6406 -68.6944,40.3277 -176.8953,81.2003 -284.7705,107.5714 -20.3378,4.9718 -24.3513,5.7681 -23.2076,4.6046 z m -323.41658,-10.1906 c -26.4547,-1.745 -43.1509,-3.5936 -63.7333,-7.0568 -103.57424,-17.4274 -199.62724,-66.2755 -269.10173,-136.8527 -92.50032,-93.9685 -132.55783,-216.824 -110.86469,-340.019 8.63265,-49.0245 28.76706,-99.3996 57.1541,-142.9961 7.58354,-11.6466 21.35618,-30.1994 31.14989,-41.961 7.5476,-9.0643 36.61765,-38.48696 46.62615,-47.19166 64.30299,-55.9271 145.39965,-94.9448 232.52638,-111.8745 34.1725,-6.6401 64.8526,-9.4785 102.76568,-9.5076 28.9103,-0.0221 40.7682,0.6252 65.3167,3.5658 128.5281,15.3958 243.2648,75.9049 321.1433,169.36246 30.4327,36.5206 55.7398,81.7415 70.8913,126.6748 18.1613,53.8593 23.7303,110.4637 16.4759,167.4659 -13.1949,103.6809 -72.1962,201.4412 -162.6822,269.5512 -79.3092,59.6971 -175.2311,94.2575 -279.0804,100.5517 -11.6905,0.7086 -49.39818,0.8936 -58.58708,0.2875 z m 140.13398,-126.1961 c 51.2053,-3.6085 95.4984,-19.13 136.4978,-47.8327 31.2419,-21.8717 58.8677,-51.6678 80.1889,-86.4882 23.7205,-38.7392 41.4088,-88.7622 47.3623,-133.9418 0.4587,-3.4808 0.3644,-4.1407 -0.5168,-3.6167 -0.5929,0.3526 -3.8932,2.3941 -7.3341,4.5366 -30.4965,18.9891 -74.9263,35.7804 -116.46,44.0135 -28.3508,5.6199 -41.7941,6.8275 -76.0049,6.8275 -35.3861,0 -51.2683,-1.4905 -81.151,-7.6159 -108.6922,-22.2795 -189.80958,-78.9904 -245.60598,-171.7082 -20.1726,-33.521 -37.5124,-75.1456 -45.99864,-110.4206 l -1.87289,-7.7851 -3.63002,8.6309 c -16.50763,39.25 -31.54694,88.9595 -40.21728,132.9305 -9.97896,50.6072 -11.68488,101.653 -4.63915,138.8102 5.93995,31.3253 15.49534,53.5259 33.09285,76.8863 26.95493,35.7821 69.27093,72.8251 113.71273,99.543 68.9444,41.4485 145.20088,61.9786 212.57618,57.2307 z m 152.2315,-335.1612 c 21.3799,-8.0634 37.2794,-31.4631 43.1032,-63.4357 1.817,-9.976 1.7584,-31.4195 -0.1149,-41.961 -5.4904,-30.8966 -22.1309,-55.3872 -42.9019,-63.141 -6.4007,-2.3894 -21.3876,-2.5262 -28.3038,-0.2584 -20.6659,6.7763 -38.1635,32.1521 -43.7162,63.3994 -1.8955,10.6662 -1.9211,31.9767 -0.051,42.1477 6.4342,34.9895 25.3056,59.986 49.1988,65.1671 5.748,1.2464 16.8796,0.3093 22.7857,-1.9181 z m -188.9302,-28.9341 c 6.1938,-2.8984 11.2068,-7.4935 15.3746,-14.0927 17.1798,-27.2023 9.7601,-68.739 -14.6319,-81.9124 -4.4747,-2.4166 -5.3527,-2.6026 -12.3388,-2.6137 -6.4822,-0.01 -8.1229,0.2736 -11.8757,2.0546 -23.22,11.0192 -32.2698,48.6422 -18.5702,77.2021 9.0808,18.9306 26.1577,26.7953 42.042,19.3621 z m -444.26974,464.9494 c -123.15302,-37.7396 -240.77922,-92.3563 -309.95744,-143.9209 -34.26158,-25.5381 -55.61682,-47.2738 -85.6127,-87.1378 -48.18029,-64.0308 -76.76827,-120.6763 -87.33065,-173.0409 -5.58699,-27.6981 -5.81445,-54.0563 -1.58684,-183.8725 1.3692,-42.0436 1.67844,-44.4458 7.11066,-55.2327 9.00673,-17.885 30.59505,-26.1674 47.53892,-18.2384 10.41005,4.8715 22.44685,19.1447 25.68838,30.4616 5.49262,19.1756 13.26935,36.9927 18.9667,43.4543 4.80826,5.4534 8.82639,6.1682 12.95163,2.3042 2.92191,-2.7369 5.60053,-8.055 7.70626,-15.2997 1.48986,-5.1259 1.76237,-8.7932 2.31412,-31.145 0.54193,-21.9548 0.84785,-26.1709 2.29281,-31.6005 3.01858,-11.34216 9.18883,-18.92126 19.32559,-23.73806 7.56011,-3.5925 13.17101,-4.7236 21.23577,-4.2809 15.23993,0.8366 24.81021,10.2576 30.00221,29.53416 1.38614,5.1466 1.81977,9.7471 2.31309,24.5433 0.56069,16.8168 0.7743,18.7242 2.79294,24.9391 2.82516,8.6978 5.30933,13.5476 8.65141,16.8897 5.16232,5.1623 10.63182,4.5079 17.33474,-2.074 5.29113,-5.1957 8.31628,-9.6186 12.94577,-18.9271 12.27891,-24.6893 25.98124,-40.6328 40.48218,-47.1035 6.67711,-2.9795 16.3352,-3.4111 22.67511,-1.0135 17.07023,6.4558 22.45961,28.3874 13.53228,55.0687 -1.15282,3.4454 -6.66777,15.7056 -12.2554,27.2449 -15.60356,32.2235 -19.76127,42.7348 -26.88768,67.9763 -17.09975,60.5661 -22.15558,133.9993 -13.85307,201.2077 6.59698,53.4022 21.41944,101.3441 42.05366,136.0184 5.93646,9.9758 16.81608,24.3317 24.13337,31.8444 7.29584,7.4908 24.65575,23.8359 39.92141,37.5879 0.48343,0.4355 4.40488,4.0376 8.71444,8.0049 4.30963,3.9672 9.64597,8.7769 11.85858,10.6881 2.21262,1.9113 9.87248,8.6861 17.02193,15.0551 26.53418,23.6376 68.64429,60.3697 77.43845,67.5484 6.59865,5.3866 9.53426,8.3555 8.18296,8.2758 -0.75237,-0.044 -4.21803,-0.954 -7.70159,-2.0215 z"
       id="path2753"
       style="fill:#000000"
       inkscape:connector-curvature="0" />
    <path
       d="m -2206.7586,186.16359 a 183.23506,183.23506 0 1 1 -366.4701,0 183.23506,183.23506 0 1 1 366.4701,0 z"
       transform="matrix(0.8117249,0,0,0.8117249,2559.1427,296.20799)"
       id="path3531"
       style="fill:#ffcc00;fill-opacity:1;stroke:none"
       inkscape:connector-curvature="0" />
    <path
       d="m -2206.7586,186.16359 a 183.23506,183.23506 0 1 1 -366.4701,0 183.23506,183.23506 0 1 1 366.4701,0 z"
       transform="matrix(0.8117249,0,0,0.8117249,2937.5837,199.61843)"
       id="path3533"
       style="fill:#0055d4;fill-opacity:1;stroke:none"
       inkscape:connector-curvature="0" />
    <path
       d="m -2206.7586,186.16359 a 183.23506,183.23506 0 1 1 -366.4701,0 183.23506,183.23506 0 1 1 366.4701,0 z"
       transform="matrix(0.8117249,0,0,0.8117249,3331.8591,324.70983)"
       id="path3535"
       style="fill:#00aa00;fill-opacity:1;stroke:none"
       inkscape:connector-curvature="0" />
    <path
       d="m -2206.7586,186.16359 a 183.23506,183.23506 0 1 1 -366.4701,0 183.23506,183.23506 0 1 1 366.4701,0 z"
       transform="matrix(0.8117249,0,0,0.8117249,3597.8762,631.89627)"
       id="path3537"
       style="fill:#ff6600;fill-opacity:1;stroke:none"
       inkscape:connector-curvature="0" />
    <path
       d="m 301.80671,883.26154 c -26.71017,-5.8023 -49.29732,-18.5452 -70.78525,-39.9346 -57.24593,-56.9832 -57.21687,-148.4168 0.0653,-205.69906 85.14242,-85.14229 229.58346,-37.22732 248.084,82.29626 11.85525,76.5917 -43.30268,152.5012 -119.93002,165.05 -23.68305,3.8784 -32.97179,3.6015 -57.43405,-1.7126 l 0,0 z"
       id="path3539"
       style="fill:none;stroke:none"
       inkscape:connector-curvature="0" />
    <path
       d="m -2206.7586,186.16359 a 183.23506,183.23506 0 1 1 -366.4701,0 183.23506,183.23506 0 1 1 366.4701,0 z"
       transform="matrix(0.8117249,0,0,0.8117249,2291.6132,581.81201)"
       id="path3547"
       style="fill:#ff00cc;fill-opacity:1;stroke:none"
       inkscape:connector-curvature="0" />
    <text
       x="276.5787"
       y="807.94275"
       id="text3609"
       xml:space="preserve"
       style="font-size:31.66870499px;font-style:normal;font-weight:normal;line-height:125%;fill:#ffffff;fill-opacity:1;stroke:none;font-family:Bitstream Vera Sans"
       sodipodi:linespacing="125%"><tspan
         x="276.5787"
         y="807.94275"
         id="tspan3611"
         style="font-size:197.92939758px;font-style:normal;font-variant:normal;font-weight:normal;font-stretch:normal;text-align:start;line-height:125%;writing-mode:lr-tb;text-anchor:start;fill:#ffffff;fill-opacity:1;font-family:Arial Black;-inkscape-font-specification:'Arial Black,'">T</tspan></text>
    <text
       x="926.55573"
       y="421.96326"
       id="text3613"
       xml:space="preserve"
       style="font-size:31.66870499px;font-style:normal;font-weight:normal;line-height:125%;fill:#ffffff;fill-opacity:1;stroke:none;font-family:Bitstream Vera Sans"
       sodipodi:linespacing="125%"><tspan
         x="926.55573"
         y="421.96326"
         id="tspan3615"
         style="font-size:197.92939758px;font-style:normal;font-variant:normal;font-weight:normal;font-stretch:normal;text-align:start;line-height:125%;writing-mode:lr-tb;text-anchor:start;fill:#ffffff;font-family:Arial Black;-inkscape-font-specification:'Arial Black,'">T</tspan></text>
    <text
       x="554.82941"
       y="498.09998"
       id="text3617"
       xml:space="preserve"
       style="font-size:31.66870499px;font-style:normal;font-weight:normal;line-height:125%;fill:#ffffff;fill-opacity:1;stroke:none;font-family:Bitstream Vera Sans"
       sodipodi:linespacing="125%"><tspan
         x="554.82941"
         y="498.09998"
         id="tspan3619"
         style="font-size:197.92939758px;font-style:normal;font-variant:normal;font-weight:normal;font-stretch:normal;text-align:start;line-height:125%;writing-mode:lr-tb;text-anchor:start;fill:#ffffff;font-family:Arial Black;-inkscape-font-specification:'Arial Black,'">a</tspan></text>
    <text
       x="1320.6754"
       y="542.88629"
       id="text3625"
       xml:space="preserve"
       style="font-size:31.66870499px;font-style:normal;font-weight:normal;line-height:125%;fill:#ffffff;fill-opacity:1;stroke:none;font-family:Bitstream Vera Sans"
       sodipodi:linespacing="125%"><tspan
         x="1320.6754"
         y="542.88629"
         id="tspan3627"
         style="font-size:197.92939758px;font-style:normal;font-variant:normal;font-weight:normal;font-stretch:normal;text-align:start;line-height:125%;writing-mode:lr-tb;text-anchor:start;fill:#ffffff;font-family:Arial Black;-inkscape-font-specification:'Arial Black,'">S</tspan></text>
    <text
       x="1625.2222"
       y="856.3905"
       id="text3633"
       xml:space="preserve"
       style="font-size:31.66870499px;font-style:normal;font-weight:normal;line-height:125%;fill:#ffffff;fill-opacity:1;stroke:none;font-family:Bitstream Vera Sans"
       sodipodi:linespacing="125%"><tspan
         x="1625.2222"
         y="856.3905"
         id="tspan3635"
         style="font-size:197.92939758px;font-style:normal;font-variant:normal;font-weight:normal;font-stretch:normal;text-align:start;line-height:125%;writing-mode:lr-tb;text-anchor:start;fill:#ffffff;font-family:Arial Black;-inkscape-font-specification:'Arial Black,'">i</tspan></text>
  </g>
</svg>
